<?xml version="1.0" encoding="UTF-8"?>
<svg id="Layer_1" xmlns="http://www.w3.org/2000/svg" version="1.1" viewBox="0 0 2915.69 686.49">
  <!-- Generator: Adobe Illustrator 30.3.0, SVG Export Plug-In . SVG Version: 2.1.3 Build 182)  -->
  <defs>
    <style>
      .st0 {
        fill: #fff;
      }
    </style>
  </defs>
  <path class="st0" d="M351.83,621.64c-38.6,0-74.2-7.43-106.79-22.3-32.6-14.86-60.9-35.07-84.88-60.63-24-25.55-42.64-55.41-55.94-89.58-13.3-34.15-19.95-70.53-19.95-109.14v-1.56c0-38.59,6.65-74.97,19.95-109.14,13.3-34.15,31.94-64.15,55.94-89.97,23.98-25.82,52.42-46.28,85.27-61.41,32.86-15.12,68.85-22.69,107.96-22.69,25.55,0,48.5,2.22,68.85,6.65,20.34,4.44,38.73,10.56,55.15,18.38s31.42,17.09,44.98,27.77c13.56,10.7,26.6,22.04,39.12,34.03l-11.74,11.74c-10.95-10.43-22.82-20.6-35.6-30.51-12.79-9.9-26.99-18.78-42.64-26.6-15.65-7.82-33.25-14.08-52.81-18.78-19.56-4.69-41.6-7.04-66.11-7.04-36.51,0-70.15,7.18-100.92,21.51-30.78,14.35-57.25,33.77-79.41,58.28-22.17,24.52-39.51,52.81-52.03,84.88-12.52,32.08-18.78,66.11-18.78,102.09v1.56c0,35.99,6.38,70.15,19.17,102.49,12.77,32.34,30.24,60.63,52.42,84.88,22.16,24.25,48.63,43.55,79.41,57.89,30.77,14.35,64.15,21.51,100.14,21.51,22.42,0,43.29-2.47,62.59-7.43,19.29-4.95,37.28-11.47,53.98-19.56,16.69-8.08,31.94-17.47,45.77-28.16,13.81-10.68,26.21-22.03,37.16-34.03l12.52,11.74c-12,12.52-25.3,24.39-39.9,35.6-14.61,11.22-30.78,21.12-48.5,29.73-17.74,8.61-36.9,15.39-57.5,20.34-20.61,4.95-42.91,7.43-66.89,7.43Z"/>
  <path class="st0" d="M658.59,64.62h17.21v263.65h391.17V64.62h17.21v547.63h-17.21v-268.34h-391.17v268.34h-17.21V64.62Z"/>
  <path class="st0" d="M1239,64.62h17.21v547.63h-17.21V64.62Z"/>
  <path class="st0" d="M1643.46,64.62h17.21v370.04l378.65-370.04h24.25l-237.83,230.79,246.44,316.85h-21.12l-237.05-305.11-153.34,149.43v155.68h-17.21V64.62Z"/>
  <path class="st0" d="M2410.68,60.71h14.86l263.65,551.55h-18.78l-78.23-164.29h-348.92l-78.23,164.29h-17.99L2410.68,60.71ZM2584.36,432.32l-166.64-348.92-166.64,348.92h333.27Z"/>
  <path class="st0" d="M2784.48,64.62h17.21v547.63h-17.21V64.62Z"/>
</svg>