<?xml version="1.0" encoding="UTF-8"?>
<svg id="Layer_1" xmlns="http://www.w3.org/2000/svg" version="1.1" viewBox="0 0 2915.69 686.49">
  <!-- Generator: Adobe Illustrator 30.3.0, SVG Export Plug-In . SVG Version: 2.1.3 Build 182)  -->
  <defs>
    <style>
      .st0 {
        fill: #fff;
      }
    </style>
  </defs>
  <path class="st0" d="M293.68,648.71c-17.4-10.2-39.51-25.9-66.3-47.1-20.01-16-37.11-28.9-51.3-38.7-14.2-9.81-29.61-18.1-46.2-24.9-16.6-6.81-33.51-10.2-50.7-10.2-6,0-10.6.2-13.8.6L154.78,112.61c-26.8,10.8-47.5,27.3-62.1,49.5-14.61,22.2-21.9,49.3-21.9,81.3,0,14.8,1.4,25.11,4.2,30.9,2.79,5.8,4.2,9.1,4.2,9.9-21.6,0-37.71-4.5-48.3-13.5-10.6-9-15.9-23.9-15.9-44.7,0-25.59,10.5-50.49,31.5-74.7,21-24.2,47.9-43.8,80.7-58.8,32.79-15,65.6-22.5,98.4-22.5,5.6,0,13.59.4,24,1.2l-92.4,430.8c11.19,2.8,22.7,6.9,34.5,12.3,11.79,5.4,26.1,12.69,42.9,21.9,26,14,48.2,24.69,66.6,32.1,18.39,7.4,37.59,11.1,57.6,11.1,18,0,34.8-3.21,50.4-9.6-3.21,29.19-10.3,52.2-21.3,69-11.01,16.8-24.7,25.2-41.1,25.2-18,0-35.7-5.1-53.1-15.3Z"/>
  <path class="st0" d="M384.58,514.01h-84V100h84v414Z"/>
  <path class="st0" d="M738.58,100v71.4h-114v342.6h-84V171.4h-114v-71.4h312Z"/>
  <path class="st0" d="M940.18,100v71.4h-114v342.6h-84V171.4h-114v-71.4h312Z"/>
  <path class="st0" d="M1064.13,443.21h174v70.8h-258V100h84v343.2Z"/>
  <path class="st0" d="M1535.55,100v71.4h-174v93h156v70.8h-156v108h174v70.8h-258V100h258Z"/>
  <path class="st0" d="M1881.75,514.01h-79.8l-94.8-414h90l55.2,272.4,78.6-272.4h75.6l81,274.2,54.6-274.2h90.6l-95.4,414h-80.4l-87.6-285-87.6,285Z"/>
  <path class="st0" d="M2531.18,100v71.4h-174v93h156v70.8h-156v108h174v70.8h-258V100h258Z"/>
  <path class="st0" d="M2721.8,100c97.8,0,151.2,34.8,151.2,108.6,0,42.6-21.6,72-54.6,88.2,42.6,15.6,67.8,46.8,67.8,98.4,0,64.2-42,118.8-151.2,118.8h-151.8V100h138.6ZM2667.2,263.81h55.8c46.2,0,66-18,66-47.4s-14.4-45.6-75-45.6h-46.8v93ZM2667.2,443.21h60.6c50.4,0,74.4-19.2,74.4-54.6,0-39-25.8-54-82.2-54h-52.8v108.6Z"/>
</svg>